<svg height="440pt" viewBox="-20 0 440 440.0003" width="440pt" xmlns="http://www.w3.org/2000/svg"><path d="m333.121094 374.144531-10.242188-12.289062 45.121094-37.597657v-76.257812h16v80c0 2.375-1.054688 4.625-2.878906 6.144531zm0 0" fill="#62666a"/><path d="m272 416h57c4.417969 0 8-3.582031 8-8v-80c0-4.417969-3.582031-8-8-8h-57zm0 0" fill="#8d7761"/><path d="m240 296h32c8.835938 0 16 7.164062 16 16v112c0 8.835938-7.164062 16-16 16h-32c-8.835938 0-16-7.164062-16-16v-112c0-8.835938 7.164062-16 16-16zm0 0" fill="#9c9c9c"/><path d="m66.878906 374.144531-48-40c-1.824218-1.519531-2.878906-3.769531-2.878906-6.144531v-80h16v76.257812l45.121094 37.597657zm0 0" fill="#62666a"/><path d="m376 256c-13.253906 0-24-10.746094-24-24v-45.785156c.460938-44.753906-22.230469-86.570313-60-110.582032-119.367188-73.695312-244 11.054688-244 124.367188v32c0 13.253906-10.746094 24-24 24s-24-10.746094-24-24v-45.816406c0-59.0625 42.199219-130.984375 94.398438-158.6875 152.175781-80.761719 305.601562 28.289062 305.601562 172.503906v32c0 13.253906-10.746094 24-24 24zm0 0" fill="#9c9c9c"/><path d="m0 232c0 13.253906 10.746094 24 24 24s24-10.746094 24-24v-24h-48zm0 0" fill="#787d82"/><path d="m352 232c0 13.253906 10.746094 24 24 24s24-10.746094 24-24v-24h-48zm0 0" fill="#787d82"/><path d="m152 192h32v32h-32zm0 0" fill="#85bc94"/><path d="m184 168h32v56h-32zm0 0" fill="#99d8aa"/><path d="m216 144h32v80h-32zm0 0" fill="#85bc94"/><path d="m160 248h16v16h-16zm0 0" fill="#aae5c8"/><path d="m192 248h16v16h-16zm0 0" fill="#99d8aa"/><path d="m224 248h16v16h-16zm0 0" fill="#6b9777"/><g fill="#787d82"><path d="m248 320h16v16h-16zm0 0"/><path d="m248 352h16v16h-16zm0 0"/><path d="m248 384h16v16h-16zm0 0"/><path d="m248 416h16v24h-16zm0 0"/></g><path d="m120 416h-49c-4.417969 0-8-3.582031-8-8v-80c0-4.417969 3.582031-8 8-8h49zm0 0" fill="#8d7761"/><path d="m128 296h32c8.835938 0 16 7.164062 16 16v112c0 8.835938-7.164062 16-16 16h-32c-8.835938 0-16-7.164062-16-16v-112c0-8.835938 7.164062-16 16-16zm0 0" fill="#9c9c9c"/><path d="m136 320h16v16h-16zm0 0" fill="#787d82"/><path d="m136 352h16v16h-16zm0 0" fill="#787d82"/><path d="m136 384h16v16h-16zm0 0" fill="#787d82"/><path d="m136 416h16v24h-16zm0 0" fill="#787d82"/><path d="m96 320h16v96h-16zm0 0" fill="#746250"/><path d="m288 320h16v96h-16zm0 0" fill="#746250"/></svg>